<?xml version="1.0" standalone="no"?>
<!DOCTYPE svg PUBLIC "-//W3C//DTD SVG 20010904//EN"
 "http://www.w3.org/TR/2001/REC-SVG-20010904/DTD/svg10.dtd">
<svg version="1.0" xmlns="http://www.w3.org/2000/svg"
 width="512.000000pt" height="512.000000pt" viewBox="0 0 512.000000 512.000000"
 preserveAspectRatio="xMidYMid meet">
<metadata>
Created by potrace 1.14, written by Peter Selinger 2001-2017
</metadata>
<g transform="translate(0.000000,512.000000) scale(0.100000,-0.100000)"
fill="#000000" stroke="none">
<path d="M2348 5114 c-2 -2 -29 -6 -59 -9 -30 -2 -67 -7 -84 -9 -16 -2 -52 -7
-80 -11 -27 -4 -53 -9 -56 -11 -3 -2 -21 -6 -40 -9 -111 -19 -306 -80 -444
-137 -38 -17 -83 -35 -100 -41 -16 -7 -32 -15 -35 -18 -3 -4 -27 -17 -55 -29
-63 -28 -279 -159 -283 -171 -2 -5 -8 -9 -14 -9 -8 0 -103 -69 -144 -105 -7
-5 -36 -30 -65 -55 -110 -93 -240 -230 -343 -360 -19 -25 -42 -53 -51 -62 -8
-10 -15 -22 -15 -27 0 -5 -3 -11 -8 -13 -6 -2 -82 -117 -129 -193 -97 -161
-207 -429 -264 -646 -23 -90 -29 -119 -54 -269 -20 -124 -28 -522 -12 -645 13
-99 17 -130 23 -155 2 -14 9 -47 14 -75 38 -209 123 -453 228 -655 64 -123 70
-134 143 -244 243 -371 579 -673 977 -877 101 -51 339 -149 364 -149 8 0 18
-3 22 -8 4 -4 11 -7 14 -8 4 0 27 -6 52 -13 93 -27 240 -59 305 -67 28 -4 53
-8 57 -10 27 -16 473 -24 593 -11 90 10 163 20 228 32 15 3 37 7 50 9 12 2 51
12 87 21 36 9 76 19 89 22 14 2 28 6 33 9 4 3 16 7 25 9 31 6 215 75 273 101
97 45 213 106 279 145 34 22 67 39 71 39 5 0 10 3 12 8 2 4 32 27 68 51 36 24
67 48 68 53 2 4 10 8 17 8 8 0 18 6 22 13 4 7 33 32 63 56 131 102 301 282
426 449 35 48 67 92 72 97 17 22 121 205 155 270 91 179 178 418 212 585 2 8
6 26 9 40 36 153 53 351 50 565 -3 189 -5 231 -19 315 -3 19 -8 49 -10 65 -19
152 -99 425 -174 599 -90 207 -262 489 -366 602 -5 6 -30 35 -55 64 -116 136
-324 324 -465 420 -27 18 -53 38 -56 43 -3 5 -10 9 -15 9 -5 0 -33 16 -63 35
-154 98 -436 223 -621 274 -55 15 -38 11 -150 36 -90 21 -119 26 -200 38 -19
3 -53 8 -75 11 -45 7 -491 14 -497 8z"/>
</g>
</svg>
